<svg id="Capa_1" enable-background="new 0 0 497 497" height="512" viewBox="0 0 497 497" width="512" xmlns="http://www.w3.org/2000/svg"><g><path d="m346 497 90-248.5-90-248.5h-60c-4.142 0-7.5 3.358-7.5 7.5v482c0 4.142 3.358 7.5 7.5 7.5z" fill="#da4e38"/><path d="m451 0-90 248.5 90 248.5h22.5c4.142 0 7.5-3.358 7.5-7.5v-482c0-4.142-3.358-7.5-7.5-7.5z" fill="#8f363e"/><path d="m346 0v497h105v-497h-30l-22.5 30-22.5-30z" fill="#b5423b"/><path d="m376 0v151.843c0 8.284 6.716 15 15 15v195c0 8.284 6.716 15 15 15s15-6.716 15-15v-361.843z" fill="#da4e38"/><path d="m334.76 210h-34.56l7.92 58.99 33.24-8.92c11.13-2.99 18.87-13.08 18.87-24.6 0-14.07-11.41-25.47-25.47-25.47z" fill="#808080"/><path d="m300.2 210h-216.7l-44.96 110.4c-28.12 69.05 22.68 144.6 97.25 144.6h60.21l52.5-112.5v-44.49c0-13.58 9.11-25.46 22.22-28.98l37.27-10c.04-.01.09-.02.13-.04 13.04-3.57 22.11-15.43 22.11-28.96 0-16.59-13.45-30.03-30.03-30.03z" fill="#999"/><path d="m218.5 90.01-45 164.99h30c24.85 0 45-20.15 45-45v-37.5l45-82.49z" fill="#696969"/><path d="m248.5 67.5c-23.78 0-43.87 15.81-50.33 37.5h-64.34c-6.46-21.69-26.55-37.5-50.33-37.5h-50.33l50.33 105v37.5c0 24.85 20.15 45 45 45h45c24.85 0 45-20.15 45-45v-75.42c0-16.34 13.66-29.58 30-29.58l50.33-37.5z" fill="#808080"/><path d="m83.5 135v37.5c-26.45 0-48.32-19.56-51.96-45h-.54c-8.28 0-15-6.72-15-15s6.72-15 15-15c-8.28 0-15-6.72-15-15s6.72-15 15-15h2.17c11.89 0 22.87 3.95 31.67 10.62 8.8 6.66 15.44 16.04 18.66 26.88-8.28 0-15 6.72-15 15s6.72 15 15 15z" fill="#ccc"/><path d="m301 97.5c8.28 0 15-6.72 15-15s-6.72-15-15-15h-2.17c-23.79 0-43.88 15.81-50.33 37.5 3.88.11 7.47 1.64 10.16 4.11 2.8 2.56 4.63 6.13 4.82 10.16.41 8.62-6.46 15.73-14.98 15.73v37.5c26.45 0 48.32-19.56 51.96-45h.54c8.28 0 15-6.72 15-15s-6.72-15-15-15z" fill="#ccc"/><path d="m293.48 374.27c.41 8.62-6.46 15.73-14.98 15.73 8.28 0 15 6.72 15 15s-6.72 15-15 15v15c0 16.57-13.43 30-30 30v-.42l-30-37.5 30-37.5c0-16.34 13.24-29.58 29.58-29.58 8.07 0 15.02 6.21 15.4 14.27z" fill="#353535"/><path d="m196 300 22.5 164.58v.42h30v-112.5c0-28.99-23.5-52.5-52.5-52.5z" fill="#696969"/><path d="m218.5 464.58v.42h-22.5c-28.99 0-52.5-23.51-52.5-52.5v-60c0-28.99 23.51-52.5 52.5-52.5 12.43 0 22.5 23.51 22.5 52.5z" fill="#808080"/><path d="m166 225c-12.426 0-22.5-10.074-22.5-22.5v-30c0-12.426 10.074-22.5 22.5-22.5s22.5 10.074 22.5 22.5v30c0 12.426-10.073 22.5-22.5 22.5z" fill="#353535"/><circle cx="113.5" cy="172.5" fill="#fff" r="7.5"/><circle cx="218.5" cy="172.5" fill="#fff" r="7.5"/><g fill="#808080"><path d="m61 375c-4.142 0-7.5-3.358-7.5-7.5v-15c0-4.142 3.358-7.5 7.5-7.5s7.5 3.358 7.5 7.5v15c0 4.142-3.358 7.5-7.5 7.5z"/><path d="m91 405c-4.142 0-7.5-3.358-7.5-7.5v-15c0-4.142 3.358-7.5 7.5-7.5s7.5 3.358 7.5 7.5v15c0 4.142-3.358 7.5-7.5 7.5z"/><path d="m91 345c-4.142 0-7.5-3.358-7.5-7.5v-15c0-4.142 3.358-7.5 7.5-7.5s7.5 3.358 7.5 7.5v15c0 4.142-3.358 7.5-7.5 7.5z"/></g></g></svg>